<?xml version="1.0" standalone="no"?>
<!DOCTYPE svg PUBLIC "-//W3C//DTD SVG 20010904//EN"
 "http://www.w3.org/TR/2001/REC-SVG-20010904/DTD/svg10.dtd">
<svg version="1.0" xmlns="http://www.w3.org/2000/svg"
 width="899.000000pt" height="896.000000pt" viewBox="0 0 899.000000 896.000000"
 preserveAspectRatio="xMidYMid meet">

<g transform="translate(0.000000,896.000000) scale(0.100000,-0.100000)"
fill="#353534" stroke="#353534" stroke-width="100">
<path d="M4423 8944 c-48 -24 -63 -75 -74 -249 -4 -82 -9 -674 -9 -1315 -1
-1107 -11 -1784 -28 -1859 -4 -19 -13 -36 -20 -39 -27 -9 -226 438 -699 1573
-381 916 -492 1173 -588 1372 -68 140 -90 175 -114 188 -92 47 -198 -24 -187
-125 11 -102 133 -419 561 -1460 377 -915 625 -1543 670 -1687 4 -17 2 -23 -8
-23 -23 0 -311 275 -872 831 -1439 1427 -1557 1539 -1630 1539 -64 0 -135 -71
-135 -137 0 -68 54 -126 1110 -1193 975 -986 1206 -1226 1241 -1291 8 -17 6
-19 -22 -19 -66 0 -305 93 -1509 590 -1181 487 -1560 637 -1627 642 -66 5
-133 -72 -133 -154 0 -24 7 -54 17 -67 28 -41 340 -180 1243 -556 1192 -496
1770 -748 1853 -807 l31 -22 -30 -8 c-65 -17 -570 -27 -1704 -33 -1179 -6
-1589 -15 -1663 -36 -53 -15 -101 -87 -94 -143 8 -60 55 -101 131 -116 68 -13
1210 -28 2336 -29 653 -1 932 -10 987 -32 27 -11 24 -13 -87 -66 -171 -82
-743 -326 -1585 -678 -1081 -451 -1317 -557 -1393 -622 -71 -60 -53 -189 31
-231 24 -12 42 -8 174 36 219 74 426 156 1662 661 878 359 1391 557 1391 535
0 -28 -310 -351 -1170 -1224 -740 -751 -1013 -1033 -1142 -1183 -77 -89 -77
-137 -1 -209 49 -46 78 -52 127 -23 58 34 446 408 1286 1241 850 842 1137
1114 1173 1114 19 0 -3 -88 -61 -245 -85 -227 -154 -398 -562 -1390 -559
-1360 -624 -1524 -611 -1558 14 -34 59 -90 84 -104 40 -22 102 -16 137 13 57
49 143 240 592 1319 608 1461 693 1657 765 1767 30 44 38 47 49 16 4 -13 11
-484 15 -1048 11 -1585 26 -2271 54 -2342 9 -22 83 -58 118 -58 44 0 96 27
107 55 23 61 31 385 40 1625 9 1227 19 1720 35 1762 4 10 11 18 16 18 26 0
236 -476 712 -1615 416 -995 621 -1456 663 -1496 20 -18 36 -23 79 -23 58 0
91 17 128 66 l19 26 -42 128 c-62 185 -242 643 -515 1309 -371 905 -480 1173
-570 1410 -84 220 -128 359 -118 369 23 22 244 -186 1161 -1094 1366 -1352
1316 -1305 1386 -1276 18 7 49 33 69 56 42 50 48 94 20 148 -26 46 -275 304
-1158 1197 -811 821 -978 993 -1103 1135 -87 99 -100 120 -76 120 38 0 659
-244 1272 -499 576 -240 1376 -562 1647 -662 216 -80 261 -92 294 -74 47 24
65 52 69 113 6 88 -17 114 -158 184 -63 31 -338 149 -610 262 -1319 544 -2199
924 -2320 1001 l-45 28 30 9 c71 19 386 28 1045 29 1229 1 2238 15 2294 30 89
25 137 117 101 193 -25 53 -50 65 -151 76 -49 5 -674 14 -1389 20 -1327 10
-1891 21 -1921 38 -15 8 -11 13 23 36 89 59 489 234 1488 651 904 377 1378
581 1523 654 31 16 67 41 80 55 45 52 16 163 -54 206 -29 18 -34 19 -87 5
-139 -36 -753 -277 -1702 -668 -929 -382 -1423 -572 -1442 -554 -18 18 228
276 1142 1197 827 834 1105 1123 1182 1225 40 53 44 64 40 98 -9 63 -73 117
-138 117 -18 0 -53 -10 -78 -22 -48 -23 -139 -111 -1396 -1358 -627 -623 -998
-980 -1018 -980 -6 0 -7 16 -3 40 17 110 139 421 651 1660 495 1199 575 1405
575 1484 0 45 -49 111 -94 126 -46 15 -110 -4 -135 -39 -61 -87 -175 -347
-661 -1511 -208 -498 -420 -1002 -471 -1120 -109 -249 -219 -473 -235 -478 -6
-1 -14 7 -18 20 -18 69 -28 546 -37 1823 -5 781 -13 1450 -17 1487 -8 73 -26
102 -79 124 -42 18 -90 17 -130 -2z m233 -3800 c144 -41 236 -95 334 -193 122
-123 178 -237 201 -408 27 -203 -48 -412 -201 -563 -80 -78 -168 -131 -275
-167 -69 -23 -98 -26 -205 -27 -146 0 -212 15 -340 76 -217 104 -361 351 -363
623 -2 187 41 300 167 441 185 207 440 289 682 218z"/>
</g>
</svg>
